<svg width="80" height="85" viewBox="0 0 80 85" fill="none" xmlns="http://www.w3.org/2000/svg">
<path d="M30.5002 61.4167C27.0266 61.4167 23.7436 60.6839 20.6512 59.2183C17.5588 57.7526 14.8583 55.752 12.5496 53.2162C10.241 50.6804 8.41943 47.7143 7.08506 44.3177C5.75068 40.9212 5.0835 37.3153 5.0835 33.5C5.0835 29.6382 5.75068 26.0207 7.08506 22.6474C8.41943 19.2742 10.241 16.3197 12.5496 13.7839C14.8583 11.2481 17.5588 9.24744 20.6512 7.78181C23.7436 6.31619 27.0266 5.58337 30.5002 5.58337C34.0161 5.58337 37.3097 6.31619 40.3809 7.78181C43.4521 9.24744 46.142 11.2481 48.4507 13.7839C50.7594 16.3197 52.5809 19.2742 53.9153 22.6474C55.2496 26.0207 55.9168 29.6382 55.9168 33.5C55.9168 37.3153 55.2496 40.9212 53.9153 44.3177C52.5809 47.7143 50.7594 50.6804 48.4507 53.2162C46.142 55.752 43.4521 57.7526 40.3809 59.2183C37.3097 60.6839 34.0161 61.4167 30.5002 61.4167ZM43.5262 27.0094L47.9106 25.3344L49.0543 20.8677C47.6141 18.4018 45.8349 16.2964 43.7168 14.5516C41.5988 12.8068 39.2054 11.4691 36.5366 10.5386L32.4064 13.5396V18.425L43.5262 27.0094ZM17.5377 27.0094L28.5939 18.425V13.5396L24.5272 10.5386C21.8585 11.4691 19.4651 12.8068 17.347 14.5516C15.229 16.2964 13.4498 18.4018 12.0095 20.8677L13.4075 25.3344L17.5377 27.0094ZM14.1064 49.3427L17.9189 48.8542L20.397 44.3177L16.4575 30.9875L11.946 29.3125L8.896 32.0344C8.896 35.3844 9.23488 38.4436 9.91266 41.212C10.5904 43.9804 11.9884 46.6907 14.1064 49.3427ZM30.5002 57.2292C31.6439 57.2292 32.7983 57.1129 33.9632 56.8802C35.1281 56.6476 36.346 56.3452 37.6168 55.973L39.7137 50.948L37.6804 47.1094H23.3835L21.3502 50.948L23.447 55.973C24.5484 56.3452 25.7134 56.6476 26.9418 56.8802C28.1703 57.1129 29.3564 57.2292 30.5002 57.2292ZM23.7647 42.9219H36.9814L40.8575 30.15L30.5002 21.9844L19.9522 30.15L23.7647 42.9219ZM46.9575 49.3427C49.0331 46.6907 50.4099 43.9804 51.0877 41.212C51.7654 38.4436 52.1043 35.3844 52.1043 32.0344L49.0543 29.7313L44.6064 30.9875L40.6668 44.3177L43.0814 48.8542L46.9575 49.3427Z" fill="black"/>
<path d="M54.5 75V62.5H42V59.5H54.5V47H57.5V59.5H70V62.5H57.5V75H54.5Z" fill="black"/>
</svg>
